# xmcd
#
# Track frame offsets: 
#        182
#        16590
#        28742
#        48410
#        63727
#        74710
#        87937
#        104390
#        120040
#        135065
#
# Disc length: 2034 seconds
#
# Revision: 3
# Processed by: cddbd v1.5.2PL0 Copyright (c) Steve Scherf et al.
# Submitted via: ExactAudioCopy v0.99pb5
#
DISCID=7a07f00a
DTITLE=Neal McCoy - At This Moment
DYEAR=1990
DGENRE=Country
TTITLE0=If I Built You A Fire
TTITLE1=Take My Heart
TTITLE2=Down On The River
TTITLE3=Hillbilly Blue
TTITLE4=This Time I Hurt Her More (Than She Loves Me)
TTITLE5=Somebody Hold Me (Until She Passes By)
TTITLE6=The Big Heat
TTITLE7=If The Walls Had Ears
TTITLE8=At This Moment
TTITLE9=This Time I'm Takin' My Time
EXTD=
EXTT0=
EXTT1=
EXTT2=
EXTT3=
EXTT4=
EXTT5=
EXTT6=
EXTT7=
EXTT8=
EXTT9=
PLAYORDER=
